<?xml version="1.0" encoding="UTF-8"?>
<svg id="Capa_1" data-name="Capa 1" xmlns="http://www.w3.org/2000/svg" viewBox="0 0 500 250">
  <defs>
    <style>
      .cls-1, .cls-2 {
        stroke: #000;
        stroke-miterlimit: 10;
      }

      .cls-2 {
        fill: none;
        stroke-width: 10px;
      }
    </style>
  </defs>
  <g>
    <path class="cls-1" d="M91.57,64.77h12.04v81.32c0,12.5-.97,21.2-2.91,26.08-1.94,4.89-5.17,8.79-9.7,11.71-4.53,2.92-10.02,4.38-16.46,4.38-4.86,0-9.65-.94-14.37-2.83-4.72-1.88-9.95-5.2-15.68-9.95l6.39-9.58c6.29,4.42,11.52,7.53,15.67,9.34,2.73,1.2,5.42,1.8,8.04,1.8,3.45,0,6.58-1.04,9.4-3.11,2.82-2.07,4.79-4.83,5.91-8.27,1.12-3.44,1.68-10.1,1.68-19.98v-80.91Z"/>
    <path class="cls-1" d="M190.3,61.74c18.25,0,33.52,6.09,45.81,18.26,12.29,12.18,18.44,27.16,18.44,44.96s-6.13,32.59-18.4,44.88c-12.27,12.28-27.22,18.43-44.87,18.43s-32.94-6.11-45.24-18.34c-12.29-12.23-18.44-27.03-18.44-44.39,0-11.57,2.8-22.3,8.4-32.19,5.6-9.88,13.23-17.62,22.9-23.22,9.67-5.6,20.13-8.39,31.39-8.39ZM190.83,73.45c-8.91,0-17.36,2.32-25.35,6.97-7.98,4.64-14.22,10.9-18.7,18.77-4.48,7.87-6.73,16.64-6.73,26.31,0,14.32,4.96,26.41,14.89,36.27,9.92,9.86,21.89,14.79,35.89,14.79,9.35,0,18-2.27,25.96-6.8,7.96-4.53,14.16-10.74,18.62-18.6,4.46-7.87,6.69-16.61,6.69-26.23s-2.23-18.21-6.69-25.94c-4.46-7.73-10.73-13.92-18.82-18.56-8.09-4.65-16.68-6.97-25.76-6.97Z"/>
    <path class="cls-1" d="M266.75,76.56v-11.79h66.01v11.79h-26.86v108.68h-12.28v-108.68h-26.86Z"/>
    <path class="cls-1" d="M399.34,64.77l56.18,120.47h-13l-44.94-94.77-25.9,55.14-18.77,39.64h-13.43l56.92-120.47h2.95Z"/>
  </g>
  <rect class="cls-2" x="7.15" y="11.19" width="485.7" height="227.62"/>
</svg>